<svg id="Capa_1" enable-background="new 0 0 512 512" height="512" viewBox="0 0 512 512" width="512" xmlns="http://www.w3.org/2000/svg"><g><g><path d="m473.101 142.383v264.979l-217.097 17.132-217.098-17.132v-264.979c0-22.489 18.224-40.702 40.702-40.702h352.791c22.478 0 40.702 18.214 40.702 40.702z" fill="#407093"/><path d="m473.101 389.891v17.471l-217.097 17.132-217.098-17.132v-17.471z" fill="#365e7d"/><path d="m50.545 415.542-11.636-8.176v-264.979c0-22.489 18.213-40.702 40.692-40.702h20.562c-22.478 0-40.702 18.213-40.702 40.702v264.979z" fill="#365e7d"/><path d="m473.098 407.366h-434.189c-21.485 0-38.902 17.417-38.902 38.902 0 21.485 17.417 38.902 38.902 38.902h434.188c21.485 0 38.902-17.417 38.902-38.902.001-21.484-17.416-38.902-38.901-38.902z" fill="#407093"/><path d="m505.781 467.36c-6.923 10.714-18.976 17.812-32.687 17.812h-434.185c-10.745 0-20.469-4.358-27.516-11.394-7.035-7.047-11.393-16.771-11.393-27.506 0-21.49 17.42-38.91 38.909-38.91h12.527c-3.925 6.078-6.212 13.32-6.212 21.088 0 10.745 4.358 20.47 11.394 27.516 7.036 7.036 16.761 11.394 27.505 11.394z" fill="#365e7d"/><path d="m78.053 349.102v-187.606c0-11.415 9.253-20.668 20.668-20.668h314.565c11.414 0 20.668 9.253 20.668 20.668v187.607c0 10.556-8.557 19.113-19.113 19.113h-317.674c-10.556 0-19.114-8.558-19.114-19.114z" fill="#f8f6f9"/><path d="m127.224 368.212h-30.061c-10.559 0-19.11-8.561-19.11-19.11v-187.606c0-11.414 9.251-20.665 20.665-20.665h30.061c-11.414 0-20.665 9.251-20.665 20.665v187.606c0 10.549 8.561 19.11 19.11 19.11z" fill="#dddaec"/><path d="m301.73 441.624h-91.454c-18.92 0-34.257-15.337-34.257-34.257h159.968c.001 18.919-15.337 34.257-34.257 34.257z" fill="#365e7d"/></g><g><path d="m307.848 128.587 44.303-44.303c7.475-7.475 7.475-19.595 0-27.071l-24.778-24.778c-7.475-7.475-19.595-7.475-27.07 0l-44.303 44.303-44.303-44.303c-7.475-7.475-19.595-7.475-27.071 0l-24.778 24.778c-7.475 7.475-7.475 19.595 0 27.071l44.303 44.303-44.303 44.303c-7.475 7.475-7.475 19.595 0 27.071l24.778 24.778c7.475 7.475 19.595 7.475 27.071 0l44.303-44.304 44.303 44.303c7.475 7.475 19.595 7.475 27.07 0l24.778-24.778c7.475-7.475 7.475-19.595 0-27.071z" fill="#dd636e"/><g fill="#da4a54"><path d="m267.457 88.195 55.76-55.76c.656-.656 1.358-1.233 2.078-1.773-7.498-5.623-18.172-5.046-24.992 1.773l-44.303 44.303z"/><path d="m207.54 224.738-24.778-24.778c-7.475-7.475-7.475-19.595 0-27.071l44.303-44.303-44.303-44.303c-7.475-7.475-7.475-19.595 0-27.071l24.778-24.778c.656-.656 1.358-1.233 2.078-1.773-7.498-5.623-18.172-5.046-24.992 1.773l-24.778 24.778c-7.475 7.475-7.475 19.595 0 27.071l44.303 44.303-44.303 44.303c-7.475 7.475-7.475 19.595 0 27.071l24.778 24.778c6.82 6.82 17.494 7.397 24.992 1.773-.72-.541-1.422-1.118-2.078-1.773z"/><path d="m323.217 224.738-55.76-55.76-11.457 11.457 44.303 44.303c6.82 6.82 17.494 7.397 24.992 1.773-.721-.541-1.423-1.118-2.078-1.773z"/></g></g></g></svg>