<svg xmlns="http://www.w3.org/2000/svg" width="54" height="34" viewBox="0 0 54 34">
  <g fill="none" fill-rule="evenodd">
    <path fill="#00BEB0" d="M18,7.25420431 C18.7865712,5.17667929 19.4755376,3.72145545 20.0668992,2.88853279 C21.8450069,0.384098915 24.6476652,0 26.3142929,0 C27.5976156,0 30.4584322,0.384098915 32.2250423,2.09203706 C33.0291151,2.86940531 33.954101,4.59012772 35,7.25420431 L28.3877455,7.47024466 L32.7788803,34 L21.0122559,34 L24.9462306,7.25420431 L18,7.25420431 Z"/>
    <path fill="#364F6B" fill-rule="nonzero" d="M7.71428571,4.33546326 C7.97515658,5.00639313 8.30124028,5.86900431 8.69254658,6.92332268 C9.08385289,7.97764105 9.50310335,9.11181502 9.95031056,10.3258786 C10.3975178,11.5399422 10.8447183,12.7699618 11.2919255,14.0159744 C11.7391327,15.2619871 12.1676998,16.4121353 12.5776398,17.4664537 C13.024847,16.2843391 13.4906808,15.0623066 13.9751553,13.8003195 C14.4596298,12.5383323 14.9254636,11.324287 15.3726708,10.158147 C15.819878,8.99200695 16.2298118,7.89776869 16.6024845,6.87539936 C16.9751571,5.85303003 17.3105575,5.00639313 17.6086957,4.33546326 L24.6801242,4.33546326 C24.6801242,6.92332268 24.6801242,9.41000827 24.6801242,11.9073482 C24.6801242,14.4046882 24.5124215,16.8035023 24.6801242,19.215655 C24.8478269,21.6278076 24.5683224,23.9840133 24.6801242,26.428115 C24.791926,28.8722167 24.6055897,31.4440767 24.6801242,34 L19.0621118,34 L19.3975155,10.9488818 L15.1490683,23.5047923 L10.1180124,23.5047923 L6.03726708,10.9488818 L6.31677019,34 L0,34 C0.111801801,31.5718728 0.232918602,29.0479364 0.363354037,26.428115 C0.493789472,23.8082936 0.633539627,21.2044858 0.782608696,18.6166134 C0.931677764,16.0287411 1.10869463,13.5207789 1.3136646,11.0926518 C1.51863457,8.6645246 1.75155149,6.41215096 2.01242236,4.33546326 L7.71428571,4.33546326 Z M38.6273292,4 C40.6024943,4 42.3912963,4.19169137 43.9937888,4.57507987 C45.5962813,4.95846837 46.9751495,5.54951677 48.1304348,6.34824281 C49.2857201,7.14696885 50.1708044,8.1613357 50.7857143,9.3913738 C51.4006242,10.6214119 51.7080745,12.0670843 51.7080745,13.7284345 C51.7080745,15.4536827 51.2981407,17.0191623 50.4782609,18.4249201 C49.658381,19.830678 48.2981461,20.9009548 46.3975155,21.6357827 C47.0310591,22.4664578 47.7018598,23.384979 48.4099379,24.3913738 C49.118016,25.3977686 49.8074501,26.4520712 50.4782609,27.5543131 C51.1490717,28.656555 51.7919224,29.7587804 52.4068323,30.8610224 C53.0217422,31.9632643 53.5527928,33.0095797 54,34 L46.7888199,34 C45.9316727,32.0830575 44.9347883,30.238028 43.7981366,28.4648562 C42.661485,26.6916844 41.4410003,24.8945778 40.136646,23.0734824 L36.5590062,23.0734824 L36.5590062,34 L28.1836684,34 L28.1836684,4.57507987 C28.8544793,4.44728371 31.0900581,4.51916989 31.8913043,4.40734824 C32.6925506,4.2955266 33.5031015,4.21565519 34.3229814,4.16773163 C35.1428612,4.11980807 35.9254621,4.07987236 36.6708075,4.04792332 C37.4161528,4.01597428 38.0683202,4 38.6273292,4 Z M44.7204969,13.6805112 C44.7204969,12.1150081 44.1614963,10.9648599 43.0434783,10.2300319 C41.9254602,9.49520399 40.4534253,9.12779553 38.6273292,9.12779553 C38.3664583,9.12779553 38.0496913,9.13578267 37.6770186,9.15175719 C37.304346,9.16773171 36.9316789,9.20766741 36.5590062,9.2715655 L36.5590062,18.1853035 L38.068323,18.1853035 C40.4161608,18.1853035 42.111796,17.7939336 43.1552795,17.0111821 C44.198763,16.2284306 44.7204969,15.1182181 44.7204969,13.6805112 Z"/>
  </g>
</svg>
