<svg width="155" height="65" viewBox="0 0 155 65" fill="none" xmlns="http://www.w3.org/2000/svg">
<path d="M31.122 30.972V57H26.856V40.188C26.856 39.516 26.892 38.79 26.964 38.01L19.098 52.788C18.726 53.496 18.156 53.85 17.388 53.85H16.704C15.936 53.85 15.366 53.496 14.994 52.788L7.038 37.956C7.074 38.352 7.104 38.742 7.128 39.126C7.152 39.51 7.164 39.864 7.164 40.188V57H2.898V30.972H6.552C6.768 30.972 6.954 30.978 7.11 30.99C7.266 31.002 7.404 31.032 7.524 31.08C7.656 31.128 7.77 31.206 7.866 31.314C7.974 31.422 8.076 31.566 8.172 31.746L15.966 46.2C16.17 46.584 16.356 46.98 16.524 47.388C16.704 47.796 16.878 48.216 17.046 48.648C17.214 48.204 17.388 47.778 17.568 47.37C17.748 46.95 17.94 46.548 18.144 46.164L25.83 31.746C25.926 31.566 26.028 31.422 26.136 31.314C26.244 31.206 26.358 31.128 26.478 31.08C26.61 31.032 26.754 31.002 26.91 30.99C27.066 30.978 27.252 30.972 27.468 30.972H31.122Z" fill="#364F6B"/>
<path d="M42 57H37V38H42V57Z" fill="#364F6B"/>
<path d="M73 57H68V38H73V57Z" fill="#364F6B"/>
<path d="M85.764 43.356C86.676 43.356 87.468 43.242 88.14 43.014C88.824 42.786 89.382 42.474 89.814 42.078C90.258 41.67 90.588 41.19 90.804 40.638C91.02 40.086 91.128 39.48 91.128 38.82C91.128 37.5 90.69 36.486 89.814 35.778C88.95 35.07 87.624 34.716 85.836 34.716H82.74V43.356H85.764ZM98.22 57H93.846C93.018 57 92.418 56.676 92.046 56.028L86.574 47.694C86.37 47.382 86.142 47.16 85.89 47.028C85.65 46.896 85.29 46.83 84.81 46.83H82.74V57H77.898V30.972H85.836C87.6 30.972 89.112 31.158 90.372 31.53C91.644 31.89 92.682 32.4 93.486 33.06C94.302 33.72 94.902 34.512 95.286 35.436C95.67 36.348 95.862 37.356 95.862 38.46C95.862 39.336 95.73 40.164 95.466 40.944C95.214 41.724 94.842 42.432 94.35 43.068C93.87 43.704 93.27 44.262 92.55 44.742C91.842 45.222 91.032 45.6 90.12 45.876C90.432 46.056 90.72 46.272 90.984 46.524C91.248 46.764 91.488 47.052 91.704 47.388L98.22 57ZM111.032 45.642C111.032 45.066 110.948 44.526 110.78 44.022C110.624 43.506 110.384 43.056 110.06 42.672C109.736 42.288 109.322 41.988 108.818 41.772C108.326 41.544 107.75 41.43 107.09 41.43C105.806 41.43 104.792 41.796 104.048 42.528C103.316 43.26 102.848 44.298 102.644 45.642H111.032ZM102.554 48.324C102.626 49.272 102.794 50.094 103.058 50.79C103.322 51.474 103.67 52.044 104.102 52.5C104.534 52.944 105.044 53.28 105.632 53.508C106.232 53.724 106.892 53.832 107.612 53.832C108.332 53.832 108.95 53.748 109.466 53.58C109.994 53.412 110.45 53.226 110.834 53.022C111.23 52.818 111.572 52.632 111.86 52.464C112.16 52.296 112.448 52.212 112.724 52.212C113.096 52.212 113.372 52.35 113.552 52.626L114.83 54.246C114.338 54.822 113.786 55.308 113.174 55.704C112.562 56.088 111.92 56.4 111.248 56.64C110.588 56.868 109.91 57.03 109.214 57.126C108.53 57.222 107.864 57.27 107.216 57.27C105.932 57.27 104.738 57.06 103.634 56.64C102.53 56.208 101.57 55.578 100.754 54.75C99.9375 53.91 99.2955 52.878 98.8275 51.654C98.3595 50.418 98.1255 48.99 98.1255 47.37C98.1255 46.11 98.3295 44.928 98.7375 43.824C99.1455 42.708 99.7275 41.742 100.484 40.926C101.252 40.098 102.182 39.444 103.274 38.964C104.378 38.484 105.62 38.244 107 38.244C108.164 38.244 109.238 38.43 110.222 38.802C111.206 39.174 112.052 39.72 112.76 40.44C113.468 41.148 114.02 42.024 114.416 43.068C114.824 44.1 115.027 45.282 115.027 46.614C115.027 47.286 114.956 47.742 114.812 47.982C114.668 48.21 114.392 48.324 113.984 48.324H102.554ZM128.12 49.116C126.836 49.176 125.756 49.29 124.88 49.458C124.004 49.614 123.302 49.818 122.774 50.07C122.246 50.322 121.868 50.616 121.64 50.952C121.412 51.288 121.298 51.654 121.298 52.05C121.298 52.83 121.526 53.388 121.982 53.724C122.45 54.06 123.056 54.228 123.8 54.228C124.712 54.228 125.498 54.066 126.158 53.742C126.83 53.406 127.484 52.902 128.12 52.23V49.116ZM117.932 41.106C120.056 39.162 122.612 38.19 125.6 38.19C126.68 38.19 127.646 38.37 128.498 38.73C129.35 39.078 130.07 39.57 130.658 40.206C131.246 40.83 131.69 41.58 131.99 42.456C132.302 43.332 132.458 44.292 132.458 45.336V57H130.442C130.022 57 129.698 56.94 129.47 56.82C129.242 56.688 129.062 56.43 128.93 56.046L128.534 54.714C128.066 55.134 127.61 55.506 127.166 55.83C126.722 56.142 126.26 56.406 125.78 56.622C125.3 56.838 124.784 57 124.232 57.108C123.692 57.228 123.092 57.288 122.432 57.288C121.652 57.288 120.932 57.186 120.272 56.982C119.612 56.766 119.042 56.448 118.562 56.028C118.082 55.608 117.71 55.086 117.446 54.462C117.182 53.838 117.05 53.112 117.05 52.284C117.05 51.816 117.128 51.354 117.284 50.898C117.44 50.43 117.692 49.986 118.04 49.566C118.4 49.146 118.862 48.75 119.426 48.378C119.99 48.006 120.68 47.682 121.496 47.406C122.324 47.13 123.284 46.908 124.376 46.74C125.468 46.56 126.716 46.452 128.12 46.416V45.336C128.12 44.1 127.856 43.188 127.328 42.6C126.8 42 126.038 41.7 125.042 41.7C124.322 41.7 123.722 41.784 123.242 41.952C122.774 42.12 122.36 42.312 122 42.528C121.64 42.732 121.31 42.918 121.01 43.086C120.722 43.254 120.398 43.338 120.038 43.338C119.726 43.338 119.462 43.26 119.246 43.104C119.03 42.936 118.856 42.744 118.724 42.528L117.932 41.106ZM148.237 43.248C147.733 42.636 147.181 42.204 146.581 41.952C145.993 41.7 145.357 41.574 144.673 41.574C144.001 41.574 143.395 41.7 142.855 41.952C142.315 42.204 141.853 42.588 141.469 43.104C141.085 43.608 140.791 44.256 140.587 45.048C140.383 45.828 140.281 46.752 140.281 47.82C140.281 48.9 140.365 49.818 140.533 50.574C140.713 51.318 140.965 51.93 141.289 52.41C141.613 52.878 142.009 53.22 142.477 53.436C142.945 53.64 143.467 53.742 144.043 53.742C144.967 53.742 145.753 53.55 146.401 53.166C147.049 52.782 147.661 52.236 148.237 51.528V43.248ZM152.683 30.252V57H149.965C149.377 57 149.005 56.73 148.849 56.19L148.471 54.408C147.727 55.26 146.869 55.95 145.897 56.478C144.937 57.006 143.815 57.27 142.531 57.27C141.523 57.27 140.599 57.06 139.759 56.64C138.919 56.22 138.193 55.614 137.581 54.822C136.981 54.018 136.513 53.028 136.177 51.852C135.853 50.676 135.691 49.332 135.691 47.82C135.691 46.452 135.877 45.18 136.249 44.004C136.621 42.828 137.155 41.808 137.851 40.944C138.547 40.08 139.381 39.408 140.353 38.928C141.325 38.436 142.417 38.19 143.629 38.19C144.661 38.19 145.543 38.352 146.275 38.676C147.007 39 147.661 39.438 148.237 39.99V30.252H152.683Z" fill="#364F6B"/>
<path d="M36.548 32.552C36.548 32.18 36.614 31.826 36.746 31.49C36.89 31.154 37.082 30.866 37.322 30.626C37.562 30.386 37.85 30.194 38.186 30.05C38.522 29.906 38.882 29.834 39.266 29.834C39.65 29.834 40.004 29.906 40.328 30.05C40.664 30.194 40.952 30.386 41.192 30.626C41.444 30.866 41.642 31.154 41.786 31.49C41.93 31.826 42.002 32.18 42.002 32.552C42.002 32.936 41.93 33.296 41.786 33.632C41.642 33.956 41.444 34.238 41.192 34.478C40.952 34.718 40.664 34.904 40.328 35.036C40.004 35.18 39.65 35.252 39.266 35.252C38.882 35.252 38.522 35.18 38.186 35.036C37.85 34.904 37.562 34.718 37.322 34.478C37.082 34.238 36.89 33.956 36.746 33.632C36.614 33.296 36.548 32.936 36.548 32.552Z" fill="#00BEB0"/>
<path d="M67.548 32.552C67.548 32.18 67.614 31.826 67.746 31.49C67.89 31.154 68.082 30.866 68.322 30.626C68.562 30.386 68.85 30.194 69.186 30.05C69.522 29.906 69.882 29.834 70.266 29.834C70.65 29.834 71.004 29.906 71.328 30.05C71.664 30.194 71.952 30.386 72.192 30.626C72.444 30.866 72.642 31.154 72.786 31.49C72.93 31.826 73.002 32.18 73.002 32.552C73.002 32.936 72.93 33.296 72.786 33.632C72.642 33.956 72.444 34.238 72.192 34.478C71.952 34.718 71.664 34.904 71.328 35.036C71.004 35.18 70.65 35.252 70.266 35.252C69.882 35.252 69.522 35.18 69.186 35.036C68.85 34.904 68.562 34.718 68.322 34.478C68.082 34.238 67.89 33.956 67.746 33.632C67.614 33.296 67.548 32.936 67.548 32.552Z" fill="#00BEB0"/>
<path d="M51.354 40.8C51.726 40.428 52.116 40.086 52.524 39.774C52.944 39.45 53.382 39.18 53.838 38.964C54.306 38.736 54.804 38.562 55.332 38.442C55.86 38.31 56.436 38.244 57.06 38.244C58.068 38.244 58.962 38.418 59.742 38.766C60.522 39.102 61.17 39.582 61.686 40.206C62.214 40.818 62.61 41.556 62.874 42.42C63.15 43.272 63.288 44.214 63.288 45.246V57H58.842V45.246C58.842 44.118 58.584 43.248 58.068 42.636C57.552 42.012 56.766 41.7 55.71 41.7C54.942 41.7 54.222 41.874 53.55 42.222C52.878 42.57 52.242 43.044 51.642 43.644V57H47.196V38.532H49.914C50.49 38.532 50.868 38.802 51.048 39.342L51.354 40.8Z" fill="#364F6B"/>
</svg>
