<svg xmlns="http://www.w3.org/2000/svg" width="172" height="32" viewBox="0 0 172 32">
  <g fill="none" transform="translate(.012 .464)">
    <path fill="#00BEB0" d="M26.988,8.536 C26.1754959,8.536 25.472378,8.26734597 24.878625,7.73002985 C24.284872,7.19271373 23.988,6.46137776 23.988,5.536 C23.988,4.61062224 24.284872,3.87928627 24.878625,3.34197015 C25.472378,2.80465403 26.1754959,2.536 26.988,2.536 C27.8317542,2.536 28.5426846,2.80465403 29.1208125,3.34197015 C29.6989404,3.87928627 29.988,4.61062224 29.988,5.536 C29.988,6.46137776 29.6989404,7.19271373 29.1208125,7.73002985 C28.5426846,8.26734597 27.8317542,8.536 26.988,8.536 Z"/>
    <path fill="#364F6B" d="M6.072,3.3 C6.27733436,3.91600308 6.53399846,4.70799516 6.842,5.676 C7.15000154,6.64400484 7.47999824,7.68532776 7.832,8.8 C8.18400176,9.91467224 8.53599824,11.0439943 8.888,12.188 C9.24000176,13.3320057 9.57733172,14.3879952 9.9,15.356 C10.2520018,14.2706612 10.6186648,13.1486725 11,11.99 C11.3813352,10.8313275 11.7479982,9.71667202 12.1,8.646 C12.4520018,7.57532798 12.7746652,6.57067136 13.068,5.632 C13.3613348,4.69332864 13.6253322,3.91600308 13.86,3.3 L18.348,3.3 C18.5533344,5.67601188 18.7513324,7.99332204 18.942,10.252 C19.1326676,12.510678 19.2939993,14.7473223 19.426,16.962 C19.5580007,19.1766777 19.6679996,21.4059888 19.756,23.65 C19.8440004,25.8940112 19.917333,28.1893216 19.976,30.536 L15.004,30.536 L15.268,9.372 L11.924,20.9 L7.964,20.9 L4.752,9.372 L4.972,30.536 L0,30.536 C0.08800044,28.3066555 0.18333282,25.9893454 0.286,23.584 C0.38866718,21.1786546 0.49866608,18.7880119 0.616,16.412 C0.73333392,14.0359881 0.87266586,11.7333445 1.034,9.504 C1.19533414,7.27465552 1.37866564,5.2066762 1.584,3.3 L6.072,3.3 Z M41.536,29.656 C40.4213278,30.1840026 39.3726716,30.5433324 38.39,30.734 C37.4073284,30.9246676 36.5053374,31.02 35.684,31.02 C34.275993,31.02 33.0953381,30.8146687 32.142,30.404 C31.1886619,29.9933313 30.4260029,29.3993372 29.854,28.622 C29.2819971,27.8446628 28.8786678,26.8986722 28.644,25.784 C28.4093322,24.6693278 28.292,23.3933405 28.292,21.956 L28.292,14.344 L22.572,14.344 L22.572,9.856 L33.704,9.856 L33.704,22.66 C33.704,23.8920062 33.9313311,24.8086637 34.386,25.41 C34.8406689,26.0113363 35.5959947,26.312 36.652,26.312 C37.1506692,26.312 37.7519965,26.2460007 38.456,26.114 C39.1600035,25.9819993 39.9519956,25.7106687 40.832,25.3 L41.536,29.656 Z M45.76,10.516 C46.7280048,10.2519987 47.9233262,10.0026678 49.346,9.768 C50.7686738,9.53333216 52.3159916,9.416 53.988,9.416 C55.6306749,9.416 56.9946612,9.64333106 58.08,10.098 C59.1653388,10.5526689 60.0233302,11.1979958 60.654,12.034 C61.2846698,12.8700042 61.7319987,13.8673275 61.996,15.026 C62.26,16.1846725 62.392,17.467993 62.392,18.876 L62.392,30.536 L56.98,30.536 L56.98,19.58 C56.98,17.6439903 56.76,16.2506709 56.32,15.4 C55.8799978,14.5493291 54.9853401,14.124 53.636,14.124 C53.2253313,14.124 52.822002,14.1386665 52.426,14.168 C52.029998,14.1973335 51.6120022,14.241333 51.172,14.3 L51.172,30.536 L45.76,30.536 L45.76,10.516 Z M85.536,29.656 C84.4213278,30.1840026 83.3726716,30.5433324 82.39,30.734 C81.4073284,30.9246676 80.5053374,31.02 79.684,31.02 C78.275993,31.02 77.0953381,30.8146687 76.142,30.404 C75.1886619,29.9933313 74.4260029,29.3993372 73.854,28.622 C73.2819971,27.8446628 72.8786678,26.8986722 72.644,25.784 C72.4093322,24.6693278 72.292,23.3933405 72.292,21.956 L72.292,14.344 L66.572,14.344 L66.572,9.856 L77.704,9.856 L77.704,22.66 C77.704,23.8920062 77.9313311,24.8086637 78.386,25.41 C78.8406689,26.0113363 79.5959947,26.312 80.652,26.312 C81.1506692,26.312 81.7519965,26.2460007 82.456,26.114 C83.1600035,25.9819993 83.9519956,25.7106687 84.832,25.3 L85.536,29.656 Z M96.404,2.992 C97.9586744,2.992 99.3666604,3.16799824 100.628,3.52 C101.88934,3.87200176 102.974662,4.414663 103.884,5.148 C104.793338,5.881337 105.489998,6.81266102 105.974,7.942 C106.458002,9.07133898 106.7,10.398659 106.7,11.924 C106.7,13.5080079 106.377337,14.9453269 105.732,16.236 C105.086663,17.5266731 104.016007,18.50933 102.52,19.184 C103.018669,19.9466705 103.546664,20.7899954 104.104,21.714 C104.661336,22.6380046 105.203997,23.6059949 105.732,24.618 C106.260003,25.6300051 106.765998,26.6419949 107.25,27.654 C107.734002,28.6660051 108.151998,29.6266621 108.504,30.536 L102.828,30.536 C102.15333,28.7759912 101.368671,27.0820081 100.474,25.454 C99.5793289,23.8259919 98.6186718,22.1760084 97.592,20.504 L94.776,20.504 L94.776,30.536 L89.364,30.536 L89.364,3.696 C89.8920026,3.57866608 90.4713302,3.46866718 91.102,3.366 C91.7326698,3.26333282 92.3706634,3.19000022 93.016,3.146 C93.6613366,3.10199978 94.2773304,3.06533348 94.864,3.036 C95.4506696,3.00666652 95.9639978,2.992 96.404,2.992 Z M101.2,11.88 C101.2,10.4426595 100.760004,9.38667004 99.88,8.712 C98.9999956,8.03732996 97.8413405,7.7 96.404,7.7 C96.1986656,7.7 95.9493348,7.70733326 95.656,7.722 C95.3626652,7.73666674 95.0693348,7.77333304 94.776,7.832 L94.776,16.016 L95.964,16.016 C97.8120092,16.016 99.1466626,15.6566703 99.968,14.938 C100.789337,14.2193297 101.2,13.2 101.2,11.88 Z M110.352,20.372 C110.352,18.5533242 110.630664,16.9546736 111.188,15.576 C111.745336,14.1973264 112.478662,13.0460046 113.388,12.122 C114.297338,11.1979954 115.338661,10.5013357 116.512,10.032 C117.685339,9.56266432 118.887994,9.328 120.12,9.328 C123.170682,9.328 125.487992,10.229991 127.072,12.034 C128.656008,13.838009 129.448,16.4706494 129.448,19.932 C129.448,20.2840018 129.440667,20.6506648 129.426,21.032 C129.411333,21.4133352 129.389333,21.7213322 129.36,21.956 L115.94,21.956 C115.94,23.3053401 116.497328,24.3686628 117.612,25.146 C118.726672,25.9233372 120.163991,26.312 121.924,26.312 C123.009339,26.312 124.043328,26.1946678 125.026,25.96 C126.008672,25.7253322 126.83733,25.4906678 127.512,25.256 L128.26,29.876 C127.321329,30.1986683 126.324005,30.4699989 125.268,30.69 C124.211995,30.9100011 123.024007,31.02 121.704,31.02 C119.943991,31.02 118.36734,30.7926689 116.974,30.338 C115.58066,29.8833311 114.392672,29.2086711 113.41,28.314 C112.427328,27.4193289 111.672003,26.3120066 111.144,24.992 C110.615997,23.6719934 110.352,22.1320088 110.352,20.372 Z M124.212,18.216 C124.212,17.6586639 124.138667,17.1233359 123.992,16.61 C123.845333,16.0966641 123.610668,15.6346687 123.288,15.224 C122.965332,14.8133313 122.554669,14.4833346 122.056,14.234 C121.557331,13.9846654 120.941337,13.86 120.208,13.86 C119.503996,13.86 118.895336,13.9773322 118.382,14.212 C117.868664,14.4466678 117.443335,14.7693313 117.106,15.18 C116.768665,15.5906687 116.504668,16.0599974 116.314,16.588 C116.123332,17.1160026 115.998667,17.6586639 115.94,18.216 L124.212,18.216 Z M142.032,26.664 C142.61867,26.664 143.190664,26.6566667 143.748,26.642 C144.305336,26.6273333 144.789331,26.590667 145.2,26.532 L145.2,21.78 C144.847998,21.721333 144.422669,21.6700002 143.924,21.626 C143.425331,21.5819998 142.970669,21.56 142.56,21.56 C142.002664,21.56 141.460003,21.5966663 140.932,21.67 C140.403997,21.7433337 139.942002,21.8679991 139.546,22.044 C139.149998,22.2200009 138.834668,22.4693317 138.6,22.792 C138.365332,23.1146683 138.248,23.5399974 138.248,24.068 C138.248,25.0066714 138.599996,25.673998 139.304,26.07 C140.008004,26.466002 140.917328,26.664 142.032,26.664 Z M141.548,9.328 C143.249342,9.328 144.664661,9.52599802 145.794,9.922 C146.923339,10.318002 147.82533,10.8753297 148.5,11.594 C149.17467,12.3126703 149.658665,13.1926615 149.952,14.234 C150.245335,15.2753385 150.392,16.4413269 150.392,17.732 L150.392,30.052 C149.599996,30.2280009 148.426674,30.4333322 146.872,30.668 C145.317326,30.9026678 143.57201,31.02 141.636,31.02 C140.315993,31.02 139.120672,30.9026678 138.05,30.668 C136.979328,30.4333322 136.06267,30.0446694 135.3,29.502 C134.53733,28.9593306 133.950669,28.2553377 133.54,27.39 C133.129331,26.5246623 132.924,25.4613396 132.924,24.2 C132.924,22.9973273 133.158664,21.9853374 133.628,21.164 C134.097336,20.3426626 134.727996,19.6826692 135.52,19.184 C136.312004,18.6853308 137.221328,18.3260011 138.248,18.106 C139.274672,17.8859989 140.345328,17.776 141.46,17.776 C142.868007,17.776 144.114661,17.8933322 145.2,18.128 L145.2,17.468 C145.2,16.4413282 144.877337,15.5833368 144.232,14.894 C143.586663,14.2046632 142.472008,13.86 140.888,13.86 C139.861328,13.86 138.871338,13.9333326 137.918,14.08 C136.964662,14.2266674 136.19467,14.4026656 135.608,14.608 L134.86,10.252 C135.53467,10.0173322 136.487994,9.80466762 137.72,9.614 C138.952006,9.42333238 140.227993,9.328 141.548,9.328 Z M159.72,20.064 C159.72,21.9120092 160.064663,23.4226608 160.754,24.596 C161.443337,25.7693392 162.550659,26.356 164.076,26.356 C164.516002,26.356 164.926665,26.3413335 165.308,26.312 C165.689335,26.2826665 166.085331,26.238667 166.496,26.18 L166.496,14.916 C166.085331,14.6813322 165.616003,14.4833341 165.088,14.322 C164.559997,14.1606659 164.00267,14.08 163.416,14.08 C162.125327,14.08 161.18667,14.5933282 160.6,15.62 C160.01333,16.6466718 159.72,18.1279903 159.72,20.064 Z M171.908,29.92 C170.910662,30.2426683 169.693341,30.5066656 168.256,30.712 C166.818659,30.9173344 165.410674,31.02 164.032,31.02 C160.805317,31.02 158.363342,30.0666762 156.706,28.16 C155.048658,26.2533238 154.22,23.6426832 154.22,20.328 C154.22,16.9546498 154.91666,14.2926764 156.31,12.342 C157.70334,10.3913236 159.763986,9.416 162.492,9.416 C163.225337,9.416 163.943996,9.49666586 164.648,9.658 C165.352004,9.81933414 165.967997,10.0466652 166.496,10.34 L166.496,0.924 L171.908,0 L171.908,29.92 Z"/>
    <path fill="#00BEB0" d="M73.8119931,1.53607028 C75.0113286,1.54231118 75.9821608,2.57991485 75.988,3.86178637 C75.988,6.21028391 71.9880102,8.536 71.9880102,8.536 C71.9880102,8.536 67.988,6.17608991 67.988,3.86178637 C67.988,2.57733994 68.9622214,1.53607028 70.1640069,1.53607028 L70.1640069,1.53607028 C70.8996597,1.52993849 71.5874151,1.92540624 71.9880102,2.58491194 C72.3913412,1.92861397 73.0773203,1.53417182 73.8119931,1.53607028 Z"/>
  </g>
</svg>
